<?xml version="1.0"?>
<svg xmlns="http://www.w3.org/2000/svg" xmlns:xlink="http://www.w3.org/1999/xlink" version="1.1" id="Capa_1" x="0px" y="0px" viewBox="0 0 512 512" style="enable-background:new 0 0 512 512;" xml:space="preserve" width="512px" height="512px"><g><g>
	<g>
		<path d="M489.07,298.93c-1.86-1.86-4.44-2.93-7.07-2.93s-5.21,1.069-7.07,2.93c-1.86,1.86-2.93,4.44-2.93,7.07    s1.07,5.21,2.93,7.069c1.86,1.86,4.44,2.931,7.07,2.931s5.21-1.07,7.07-2.931c1.86-1.859,2.93-4.439,2.93-7.069    S490.93,300.79,489.07,298.93z" data-original="#000000" class="active-path" data-old_color="#000000" fill="#EBA966"/>
	</g>
</g><g>
	<g>
		<path d="M502,374h-10v-28.5c0-5.522-4.477-10-10-10s-10,4.478-10,10V374H40V96c0-12.131,9.869-22,22-22h388    c12.131,0,22,9.869,22,22v168c0,5.522,4.477,10,10,10s10-4.478,10-10V96c0-23.159-18.841-42-42-42H62c-23.159,0-42,18.841-42,42    v278H10c-5.523,0-10,4.478-10,10v22c0,28.673,23.327,52,52,52h408c28.673,0,52-23.327,52-52v-22C512,378.478,507.523,374,502,374z     M492,406c0,17.645-14.355,32-32,32H52c-17.645,0-32-14.355-32-32v-12h472V406z" data-original="#000000" class="active-path" data-old_color="#000000" fill="#EBA966"/>
	</g>
</g><g>
	<g>
		<path d="M289.667,406h-67.333c-5.523,0-10,4.478-10,10c0,5.522,4.477,10,10,10h67.333c5.523,0,10-4.478,10-10    C299.667,410.478,295.189,406,289.667,406z" data-original="#000000" class="active-path" data-old_color="#000000" fill="#EBA966"/>
	</g>
</g><g>
	<g>
		<path d="M234,106h-35.894c-5.523,0-10,4.478-10,10c0,5.522,4.477,10,10,10H224v196H80V126h25.894c5.523,0,10-4.478,10-10    c0-5.522-4.477-10-10-10H70c-5.523,0-10,4.478-10,10v216c0,5.522,4.477,10,10,10h164c5.523,0,10-4.478,10-10V116    C244,110.478,239.523,106,234,106z" data-original="#000000" class="active-path" data-old_color="#000000" fill="#EBA966"/>
	</g>
</g><g>
	<g>
		<path d="M159.07,108.93c-1.86-1.86-4.44-2.93-7.07-2.93s-5.21,1.069-7.07,2.93c-1.86,1.86-2.93,4.44-2.93,7.07    s1.07,5.21,2.93,7.069c1.86,1.86,4.44,2.931,7.07,2.931s5.21-1.07,7.07-2.931c1.86-1.859,2.93-4.439,2.93-7.069    S160.93,110.79,159.07,108.93z" data-original="#000000" class="active-path" data-old_color="#000000" fill="#EBA966"/>
	</g>
</g><g>
	<g>
		<path d="M120.594,174h-14.701c-5.523,0-10,4.478-10,10v39.956V264c0,5.522,4.477,10,10,10s10-4.478,10-10v-30.044h4.701    c16.53,0,29.978-13.448,29.978-29.979C150.572,187.448,137.124,174,120.594,174z M120.594,213.956h-4.701V194h4.701    c5.502,0,9.978,4.476,9.978,9.978C130.572,209.48,126.096,213.956,120.594,213.956z" data-original="#000000" class="active-path" data-old_color="#000000" fill="#EBA966"/>
	</g>
</g><g>
	<g>
		<path d="M183.101,223.989h-1.094c-2.76,0-5.006-2.246-5.006-5.006c0-2.76,2.246-5.005,5.006-5.005h7.555c5.523,0,10-4.478,10-10    c0-5.522-4.477-10-10-10h-7.555c-13.788,0-25.006,11.218-25.006,25.006c0,13.788,11.218,25.006,25.006,25.006h1.094    c2.76,0,5.005,2.245,5.005,5.005S185.861,254,183.101,254h-16.1c-5.523,0-10,4.478-10,10c0,5.522,4.477,10,10,10h16.1    c13.788,0,25.005-11.218,25.005-25.006C208.106,235.206,196.889,223.989,183.101,223.989z" data-original="#000000" class="active-path" data-old_color="#000000" fill="#EBA966"/>
	</g>
</g><g>
	<g>
		<path d="M377.003,261.178l-23.529-80c-1.252-4.256-5.158-7.179-9.594-7.179c-4.436,0-8.342,2.923-9.594,7.179l-23.53,80    c-1.558,5.299,1.474,10.857,6.772,12.416c0.942,0.277,1.892,0.409,2.826,0.409c4.322-0.001,8.308-2.825,9.589-7.182l2.232-7.589    h23.408l2.232,7.589c1.558,5.299,7.117,8.332,12.416,6.772C375.529,272.034,378.561,266.476,377.003,261.178z M338.058,239.232    l5.822-19.793l5.821,19.793H338.058z" data-original="#000000" class="active-path" data-old_color="#000000" fill="#EBA966"/>
	</g>
</g><g>
	<g>
		<path d="M399.65,199.723c-5.523,0-10,4.478-10,10V264c0,5.522,4.477,10,10,10s10-4.478,10-10v-54.277    C409.65,204.201,405.173,199.723,399.65,199.723z" data-original="#000000" class="active-path" data-old_color="#000000" fill="#EBA966"/>
	</g>
</g><g>
	<g>
		<path d="M442,106H278c-5.523,0-10,4.478-10,10v216c0,5.522,4.477,10,10,10h164c5.523,0,10-4.478,10-10V116    C452,110.478,447.523,106,442,106z M432,322H288V126h144V322z" data-original="#000000" class="active-path" data-old_color="#000000" fill="#EBA966"/>
	</g>
</g></g> </svg>
