<?xml version="1.0"?>
<svg xmlns="http://www.w3.org/2000/svg" id="line" height="512px" viewBox="0 0 64 64" width="512px" class=""><g><path d="m42 19.5a21 21 0 0 0 0 42h20a1 1 0 0 0 1-1v-20a21.024 21.024 0 0 0 -21-21zm-7 11h14a1 1 0 0 1 0 2h-14a1 1 0 0 1 0-2zm19 20h-8a1 1 0 0 1 0-2h8a1 1 0 0 1 0 2zm0-6h-24a1 1 0 0 1 0-2h24a1 1 0 0 1 0 2zm0-6h-24a1 1 0 0 1 0-2h24a1 1 0 0 1 0 2z" fill="#c4a2fc" data-original="#C4A2FC" class="" style="fill:#EBA966" data-old_color="#c4a2fc"/><g fill="#151a6a"><path d="m22 2.5h-20a1 1 0 0 0 -1 1v20a21 21 0 1 0 21-21zm0 40a19.021 19.021 0 0 1 -19-19v-19h19a19 19 0 0 1 0 38z" data-original="#151A6A" class="active-path" style="fill:#0E2A47" data-old_color="#151A6A"/><path d="m34 19.5h-24a1 1 0 0 0 0 2h24a1 1 0 0 0 0-2z" data-original="#151A6A" class="active-path" style="fill:#0E2A47" data-old_color="#151A6A"/><path d="m10 15.5h8a1 1 0 0 0 0-2h-8a1 1 0 0 0 0 2z" data-original="#151A6A" class="active-path" style="fill:#0E2A47" data-old_color="#151A6A"/><path d="m34 25.5h-24a1 1 0 0 0 0 2h24a1 1 0 0 0 0-2z" data-original="#151A6A" class="active-path" style="fill:#0E2A47" data-old_color="#151A6A"/><path d="m29 31.5h-14a1 1 0 0 0 0 2h14a1 1 0 0 0 0-2z" data-original="#151A6A" class="active-path" style="fill:#0E2A47" data-old_color="#151A6A"/></g></g> </svg>
