<?xml version="1.0"?>
<svg xmlns="http://www.w3.org/2000/svg" id="Capa_1" enable-background="new 0 0 512 512" height="512px" viewBox="0 0 512 512" width="512px" class=""><g><g><g><path d="m502 81.681c5.522 0 10-4.478 10-10v-61.681c0-5.522-4.478-10-10-10h-61.709c-5.522 0-10 4.478-10 10v20.841h-348.61v-20.841c0-5.522-4.478-10-10-10h-61.681c-5.522 0-10 4.478-10 10v61.681c0 5.522 4.478 10 10 10h20.841v348.61h-20.841c-5.522 0-10 4.478-10 10v61.709c0 5.522 4.478 10 10 10h61.681c5.522 0 10-4.478 10-10v-20.869h348.61v20.869c0 5.522 4.478 10 10 10h61.709c5.522 0 10-4.478 10-10v-61.709c0-5.522-4.478-10-10-10h-20.869v-348.61zm-482-20v-41.681h41.681v41.681zm41.681 430.319h-41.681v-41.709h41.681zm368.61-51.709v20.84h-348.61v-20.84c0-5.522-4.478-10-10-10h-20.84v-348.61h20.84c5.522 0 10-4.478 10-10v-20.84h348.61v20.84c0 5.522 4.478 10 10 10h20.84v348.61h-20.84c-5.522 0-10 4.478-10 10zm61.709 10v41.709h-41.709v-41.709zm-41.709-388.61v-41.681h41.709v41.681z" data-original="#000000" class="active-path" data-old_color="#000000" fill="#EBA966"/><path d="m435.154 197.424c0-3.518-1.848-6.776-4.865-8.582l-169.169-101.223c-3.162-1.893-7.109-1.891-10.27 0l-169.139 101.223c-3.019 1.807-4.865 5.064-4.865 8.582 0 3.517 1.848 6.774 4.866 8.58l34.592 20.696-34.594 20.704c-3.018 1.807-4.864 5.064-4.864 8.581s1.848 6.774 4.865 8.581l34.596 20.705-34.6 20.728c-3.017 1.807-4.862 5.064-4.861 8.581.001 3.516 1.849 6.773 4.866 8.578l169.14 101.194c1.58.946 3.357 1.419 5.134 1.419s3.554-.473 5.135-1.419l46.091-27.58c4.739-2.836 6.282-8.977 3.446-13.716-2.835-4.739-8.977-6.28-13.716-3.446l-40.956 24.508-149.672-89.547 29.461-17.65 115.076 68.868c1.581.946 3.357 1.419 5.135 1.419 1.776 0 3.554-.473 5.135-1.419l115.087-68.863 29.474 17.647-31.667 18.945c-4.739 2.835-6.283 8.976-3.447 13.715 1.873 3.132 5.188 4.868 8.591 4.868 1.747 0 3.517-.458 5.124-1.42l46.006-27.524c3.018-1.805 4.865-5.062 4.866-8.579s-1.846-6.775-4.863-8.582l-34.611-20.722 34.609-20.708c3.018-1.806 4.865-5.064 4.865-8.582 0-3.517-1.849-6.775-4.866-8.581l-34.605-20.698 34.605-20.7c3.018-1.806 4.865-5.065 4.865-8.581zm-29.478 58.563-149.69 89.568-149.667-89.57 29.462-17.633 115.071 68.846c1.58.946 3.357 1.419 5.134 1.419s3.553-.473 5.134-1.418l115.084-68.842zm-149.691 30.978-149.664-89.543 149.664-89.568 149.691 89.568z" data-original="#000000" class="active-path" data-old_color="#000000" fill="#EBA966"/><path d="m250.853 137.648-20.947 12.529c-4.74 2.835-6.284 8.976-3.449 13.715 2.834 4.739 8.976 6.285 13.715 3.449l15.814-9.459 15.815 9.459c1.608.962 3.377 1.42 5.123 1.42 3.402 0 6.719-1.737 8.592-4.869 2.835-4.739 1.291-10.88-3.449-13.715l-20.948-12.529c-3.161-1.89-7.106-1.89-10.266 0z" data-original="#000000" class="active-path" data-old_color="#000000" fill="#EBA966"/><path d="m306.166 218.602c1.873 3.131 5.188 4.867 8.591 4.867 1.746 0 3.517-.459 5.125-1.421l26.814-16.044c3.019-1.806 4.866-5.064 4.866-8.581s-1.848-6.775-4.866-8.581l-26.814-16.044c-4.739-2.837-10.881-1.293-13.716 3.446-2.836 4.74-1.293 10.881 3.446 13.716l12.474 7.463-12.474 7.463c-4.739 2.835-6.282 8.975-3.446 13.716z" data-original="#000000" class="active-path" data-old_color="#000000" fill="#EBA966"/><path d="m205.804 176.24c-2.838-4.738-8.979-6.279-13.718-3.44l-26.787 16.044c-3.016 1.807-4.861 5.063-4.861 8.579s1.846 6.772 4.861 8.579l26.787 16.044c1.609.964 3.381 1.423 5.129 1.423 3.4-.001 6.715-1.735 8.589-4.863 2.838-4.738 1.297-10.88-3.44-13.718l-12.464-7.465 12.464-7.465c4.737-2.838 6.278-8.979 3.44-13.718z" data-original="#000000" class="active-path" data-old_color="#000000" fill="#EBA966"/><path d="m271.801 227.505-15.815 9.459-15.814-9.459c-4.739-2.836-10.881-1.29-13.715 3.449-2.835 4.739-1.291 10.88 3.449 13.715l20.947 12.529c1.58.945 3.356 1.418 5.133 1.418s3.553-.473 5.133-1.418l20.948-12.529c4.74-2.835 6.284-8.976 3.449-13.715-2.834-4.739-8.975-6.285-13.715-3.449z" data-original="#000000" class="active-path" data-old_color="#000000" fill="#EBA966"/><path d="m336.155 356.201-.057.028c-4.94 2.47-6.914 8.463-4.444 13.402 1.75 3.501 5.291 5.519 8.963 5.519 1.51 0 3.043-.341 4.481-1.061 4.94-2.47 6.942-8.477 4.473-13.416-2.469-4.941-8.48-6.942-13.416-4.472z" data-original="#000000" class="active-path" data-old_color="#000000" fill="#EBA966"/></g></g></g> </svg>
